<svg xmlns="http://www.w3.org/2000/svg">
  <defs>
    <!-- Git Branch -->
    <symbol id="git-branch" viewBox="0 0 24 24" fill="none" stroke="currentColor" stroke-width="2" stroke-linecap="round" stroke-linejoin="round">
      <line x1="6" x2="6" y1="3" y2="15"></line>
      <circle cx="18" cy="6" r="3"></circle>
      <circle cx="6" cy="18" r="3"></circle>
      <path d="M18 9a9 9 0 0 1-9 9"></path>
    </symbol>

    <!-- Folder -->
    <symbol id="folder" viewBox="0 0 24 24" fill="none" stroke="currentColor" stroke-width="2" stroke-linecap="round" stroke-linejoin="round">
      <path d="M4 20h16a2 2 0 0 0 2-2V8a2 2 0 0 0-2-2h-7.93a2 2 0 0 1-1.66-.9l-.82-1.2A2 2 0 0 0 7.93 3H4a2 2 0 0 0-2 2v13c0 1.1.9 2 2 2Z"></path>
    </symbol>

    <!-- Check Circle -->
    <symbol id="check-circle" viewBox="0 0 24 24" fill="none" stroke="currentColor" stroke-width="2" stroke-linecap="round" stroke-linejoin="round">
      <circle cx="12" cy="12" r="10"></circle>
      <path d="m9 12 2 2 4-4"></path>
    </symbol>

    <!-- Clipboard Copy -->
    <symbol id="clipboard-copy" viewBox="0 0 24 24" fill="none" stroke="currentColor" stroke-width="2" stroke-linecap="round" stroke-linejoin="round">
      <rect width="8" height="4" x="8" y="2" rx="1" ry="1"></rect>
      <path d="M8 4H6a2 2 0 0 0-2 2v14a2 2 0 0 0 2 2h12a2 2 0 0 0 2-2v-2"></path>
      <path d="M16 4h2a2 2 0 0 1 2 2v4"></path>
      <path d="M21 14H11"></path>
      <path d="m15 10-4 4 4 4"></path>
    </symbol>

    <!-- External Link -->
    <symbol id="external-link" viewBox="0 0 24 24" fill="none" stroke="currentColor" stroke-width="2" stroke-linecap="round" stroke-linejoin="round">
      <path d="M18 13v6a2 2 0 0 1-2 2H5a2 2 0 0 1-2-2V8a2 2 0 0 1 2-2h6"></path>
      <polyline points="15 3 21 3 21 9"></polyline>
      <line x1="10" x2="21" y1="14" y2="3"></line>
    </symbol>

    <!-- Message Circle -->
    <symbol id="message-circle" viewBox="0 0 24 24" fill="none" stroke="currentColor" stroke-width="2" stroke-linecap="round" stroke-linejoin="round">
      <path d="M7.9 20A9 9 0 1 0 4 16.1L2 22Z"></path>
    </symbol>

    <!-- Send -->
    <symbol id="send" viewBox="0 0 24 24" fill="none" stroke="currentColor" stroke-width="2" stroke-linecap="round" stroke-linejoin="round">
      <path d="m22 2-7 20-4-9-9-4Z"></path>
      <path d="M22 2 11 13"></path>
    </symbol>

    <!-- Clipboard (Board) -->
    <symbol id="clipboard" viewBox="0 0 24 24" fill="none" stroke="currentColor" stroke-width="2" stroke-linecap="round" stroke-linejoin="round">
      <rect width="8" height="4" x="8" y="2" rx="1" ry="1"></rect>
      <path d="M16 4h2a2 2 0 0 1 2 2v14a2 2 0 0 1-2 2H6a2 2 0 0 1-2-2V6a2 2 0 0 1 2-2h2"></path>
    </symbol>

    <!-- Bot -->
    <symbol id="bot" viewBox="0 0 24 24" fill="none" stroke="currentColor" stroke-width="2" stroke-linecap="round" stroke-linejoin="round">
      <path d="M12 8V4H8"></path>
      <rect width="16" height="12" x="4" y="8" rx="2"></rect>
      <path d="M2 14h2"></path>
      <path d="M20 14h2"></path>
      <path d="M15 13v2"></path>
      <path d="M9 13v2"></path>
    </symbol>

    <!-- Settings -->
    <symbol id="settings" viewBox="0 0 24 24" fill="none" stroke="currentColor" stroke-width="2" stroke-linecap="round" stroke-linejoin="round">
      <path d="M12.22 2h-.44a2 2 0 0 0-2 2v.18a2 2 0 0 1-1 1.73l-.43.25a2 2 0 0 1-2 0l-.15-.08a2 2 0 0 0-2.73.73l-.22.38a2 2 0 0 0 .73 2.73l.15.1a2 2 0 0 1 1 1.72v.51a2 2 0 0 1-1 1.74l-.15.09a2 2 0 0 0-.73 2.73l.22.38a2 2 0 0 0 2.73.73l.15-.08a2 2 0 0 1 2 0l.43.25a2 2 0 0 1 1 1.73V20a2 2 0 0 0 2 2h.44a2 2 0 0 0 2-2v-.18a2 2 0 0 1 1-1.73l.43-.25a2 2 0 0 1 2 0l.15.08a2 2 0 0 0 2.73-.73l.22-.39a2 2 0 0 0-.73-2.73l-.15-.08a2 2 0 0 1-1-1.74v-.5a2 2 0 0 1 1-1.74l.15-.09a2 2 0 0 0 .73-2.73l-.22-.38a2 2 0 0 0-2.73-.73l-.15.08a2 2 0 0 1-2 0l-.43-.25a2 2 0 0 1-1-1.73V4a2 2 0 0 0-2-2z"></path>
      <circle cx="12" cy="12" r="3"></circle>
    </symbol>

    <!-- Plus -->
    <symbol id="plus" viewBox="0 0 24 24" fill="none" stroke="currentColor" stroke-width="2" stroke-linecap="round" stroke-linejoin="round">
      <path d="M5 12h14"></path>
      <path d="M12 5v14"></path>
    </symbol>

    <!-- Arrow Left -->
    <symbol id="arrow-left" viewBox="0 0 24 24" fill="none" stroke="currentColor" stroke-width="2" stroke-linecap="round" stroke-linejoin="round">
      <path d="m12 19-7-7 7-7"></path>
      <path d="M19 12H5"></path>
    </symbol>

    <!-- Check -->
    <symbol id="check" viewBox="0 0 24 24" fill="none" stroke="currentColor" stroke-width="2" stroke-linecap="round" stroke-linejoin="round">
      <polyline points="20 6 9 17 4 12"></polyline>
    </symbol>

    <!-- Circle -->
    <symbol id="circle" viewBox="0 0 24 24" fill="none" stroke="currentColor" stroke-width="2" stroke-linecap="round" stroke-linejoin="round">
      <circle cx="12" cy="12" r="10"></circle>
    </symbol>

    <!-- Alert Triangle -->
    <symbol id="alert-triangle" viewBox="0 0 24 24" fill="none" stroke="currentColor" stroke-width="2" stroke-linecap="round" stroke-linejoin="round">
      <path d="m21.73 18-8-14a2 2 0 0 0-3.48 0l-8 14A2 2 0 0 0 4 21h16a2 2 0 0 0 1.73-3Z"></path>
      <path d="M12 9v4"></path>
      <path d="M12 17h.01"></path>
    </symbol>

    <!-- Tag -->
    <symbol id="tag" viewBox="0 0 24 24" fill="none" stroke="currentColor" stroke-width="2" stroke-linecap="round" stroke-linejoin="round">
      <path d="M12 2H2v10l9.29 9.29c.94.94 2.48.94 3.42 0l6.58-6.58c.94-.94.94-2.48 0-3.42L12 2Z"></path>
      <path d="M7 7h.01"></path>
    </symbol>

    <!-- Layers (Domain) -->
    <symbol id="layers" viewBox="0 0 24 24" fill="none" stroke="currentColor" stroke-width="2" stroke-linecap="round" stroke-linejoin="round">
      <path d="m12.83 2.18a2 2 0 0 0-1.66 0L2.6 6.08a1 1 0 0 0 0 1.83l8.58 3.91a2 2 0 0 0 1.66 0l8.58-3.9a1 1 0 0 0 0-1.83Z"></path>
      <path d="m22 17.65-9.17 4.16a2 2 0 0 1-1.66 0L2 17.65"></path>
      <path d="m22 12.65-9.17 4.16a2 2 0 0 1-1.66 0L2 12.65"></path>
    </symbol>

    <!-- User -->
    <symbol id="user" viewBox="0 0 24 24" fill="none" stroke="currentColor" stroke-width="2" stroke-linecap="round" stroke-linejoin="round">
      <path d="M19 21v-2a4 4 0 0 0-4-4H9a4 4 0 0 0-4 4v2"></path>
      <circle cx="12" cy="7" r="4"></circle>
    </symbol>

    <!-- Shield -->
    <symbol id="shield" viewBox="0 0 24 24" fill="none" stroke="currentColor" stroke-width="2" stroke-linecap="round" stroke-linejoin="round">
      <path d="M12 22s8-4 8-10V5l-8-3-8 3v7c0 6 8 10 8 10z"></path>
    </symbol>

    <!-- Palette -->
    <symbol id="palette" viewBox="0 0 24 24" fill="none" stroke="currentColor" stroke-width="2" stroke-linecap="round" stroke-linejoin="round">
      <circle cx="13.5" cy="6.5" r=".5"></circle>
      <circle cx="17.5" cy="10.5" r=".5"></circle>
      <circle cx="8.5" cy="7.5" r=".5"></circle>
      <circle cx="6.5" cy="12.5" r=".5"></circle>
      <path d="M12 2C6.5 2 2 6.5 2 12s4.5 10 10 10c.926 0 1.648-.746 1.648-1.688 0-.437-.18-.835-.437-1.125-.29-.289-.438-.652-.438-1.125a1.64 1.64 0 0 1 1.668-1.668h1.996c3.051 0 5.555-2.503 5.555-5.555C21.965 6.012 17.461 2 12 2z"></path>
    </symbol>

    <!-- Monitor -->
    <symbol id="monitor" viewBox="0 0 24 24" fill="none" stroke="currentColor" stroke-width="2" stroke-linecap="round" stroke-linejoin="round">
      <rect width="20" height="14" x="2" y="3" rx="2"></rect>
      <line x1="8" x2="16" y1="21" y2="21"></line>
      <line x1="12" x2="12" y1="17" y2="21"></line>
    </symbol>

    <!-- Help Circle -->
    <symbol id="help-circle" viewBox="0 0 24 24" fill="none" stroke="currentColor" stroke-width="2" stroke-linecap="round" stroke-linejoin="round">
      <circle cx="12" cy="12" r="10"></circle>
      <path d="M9.09 9a3 3 0 0 1 5.83 1c0 2-3 3-3 3"></path>
      <path d="M12 17h.01"></path>
    </symbol>

    <!-- Layout (Frontend) -->
    <symbol id="layout" viewBox="0 0 24 24" fill="none" stroke="currentColor" stroke-width="2" stroke-linecap="round" stroke-linejoin="round">
      <rect width="18" height="18" x="3" y="3" rx="2" ry="2"></rect>
      <line x1="3" x2="21" y1="9" y2="9"></line>
      <line x1="9" x2="9" y1="21" y2="9"></line>
    </symbol>

    <!-- Server (Backend) -->
    <symbol id="server" viewBox="0 0 24 24" fill="none" stroke="currentColor" stroke-width="2" stroke-linecap="round" stroke-linejoin="round">
      <rect width="20" height="8" x="2" y="2" rx="2" ry="2"></rect>
      <rect width="20" height="8" x="2" y="14" rx="2" ry="2"></rect>
      <line x1="6" x2="6.01" y1="6" y2="6"></line>
      <line x1="6" x2="6.01" y1="18" y2="18"></line>
    </symbol>

    <!-- Cloud (Infra) -->
    <symbol id="cloud" viewBox="0 0 24 24" fill="none" stroke="currentColor" stroke-width="2" stroke-linecap="round" stroke-linejoin="round">
      <path d="M17.5 19H9a7 7 0 1 1 6.71-9h1.79a4.5 4.5 0 1 1 0 9Z"></path>
    </symbol>

    <!-- Database -->
    <symbol id="database" viewBox="0 0 24 24" fill="none" stroke="currentColor" stroke-width="2" stroke-linecap="round" stroke-linejoin="round">
      <ellipse cx="12" cy="5" rx="9" ry="3"></ellipse>
      <path d="M21 12c0 1.66-4 3-9 3s-9-1.34-9-3"></path>
      <path d="M3 5v14c0 1.66 4 3 9 3s9-1.34 9-3V5"></path>
    </symbol>

    <!-- Share 2 (Shared) -->
    <symbol id="share-2" viewBox="0 0 24 24" fill="none" stroke="currentColor" stroke-width="2" stroke-linecap="round" stroke-linejoin="round">
      <circle cx="18" cy="5" r="3"></circle>
      <circle cx="6" cy="12" r="3"></circle>
      <circle cx="18" cy="19" r="3"></circle>
      <line x1="8.59" x2="15.42" y1="13.51" y2="17.49"></line>
      <line x1="15.41" x2="8.59" y1="6.51" y2="10.49"></line>
    </symbol>

    <!-- File -->
    <symbol id="file" viewBox="0 0 24 24" fill="none" stroke="currentColor" stroke-width="2" stroke-linecap="round" stroke-linejoin="round">
      <path d="M14.5 2H6a2 2 0 0 0-2 2v16a2 2 0 0 0 2 2h12a2 2 0 0 0 2-2V7.5L14.5 2z"></path>
      <polyline points="14 2 14 8 20 8"></polyline>
    </symbol>

    <!-- X (Close) -->
    <symbol id="x" viewBox="0 0 24 24" fill="none" stroke="currentColor" stroke-width="2" stroke-linecap="round" stroke-linejoin="round">
      <path d="M18 6 6 18"></path>
      <path d="m6 6 12 12"></path>
    </symbol>

    <!-- Chevron Down -->
    <symbol id="chevron-down" viewBox="0 0 24 24" fill="none" stroke="currentColor" stroke-width="2" stroke-linecap="round" stroke-linejoin="round">
      <path d="m6 9 6 6 6-6"></path>
    </symbol>

    <!-- Chevron Right -->
    <symbol id="chevron-right" viewBox="0 0 24 24" fill="none" stroke="currentColor" stroke-width="2" stroke-linecap="round" stroke-linejoin="round">
      <path d="m9 18 6-6-6-6"></path>
    </symbol>

    <!-- Bug -->
    <symbol id="bug" viewBox="0 0 24 24" fill="none" stroke="currentColor" stroke-width="2" stroke-linecap="round" stroke-linejoin="round">
      <path d="m8 2 1.88 1.88"></path>
      <path d="M14.12 3.88 16 2"></path>
      <path d="M9 7.13v-1a3.003 3.003 0 1 1 6 0v1"></path>
      <path d="M12 20c-3.3 0-6-2.7-6-6v-3a4 4 0 0 1 4-4h4a4 4 0 0 1 4 4v3c0 3.3-2.7 6-6 6"></path>
      <path d="M12 20v-9"></path>
      <path d="M6.53 9C4.6 8.8 3 7.1 3 5"></path>
      <path d="M6 13H2"></path>
      <path d="M3 21c0-2.1 1.7-3.9 3.8-4"></path>
      <path d="M20.97 5c0 2.1-1.6 3.8-3.5 4"></path>
      <path d="M22 13h-4"></path>
      <path d="M17.2 17c2.1.1 3.8 1.9 3.8 4"></path>
    </symbol>

    <!-- Clock -->
    <symbol id="clock" viewBox="0 0 24 24" fill="none" stroke="currentColor" stroke-width="2" stroke-linecap="round" stroke-linejoin="round">
      <circle cx="12" cy="12" r="10"></circle>
      <polyline points="12 6 12 12 16 14"></polyline>
    </symbol>

    <!-- Ticket -->
    <symbol id="ticket" viewBox="0 0 24 24" fill="none" stroke="currentColor" stroke-width="2" stroke-linecap="round" stroke-linejoin="round">
      <path d="M2 9a3 3 0 0 1 0 6v2a2 2 0 0 0 2 2h16a2 2 0 0 0 2-2v-2a3 3 0 0 1 0-6V7a2 2 0 0 0-2-2H4a2 2 0 0 0-2 2Z"></path>
      <path d="M13 5v2"></path>
      <path d="M13 17v2"></path>
      <path d="M13 11v2"></path>
    </symbol>

    <!-- Copy -->
    <symbol id="copy" viewBox="0 0 24 24" fill="none" stroke="currentColor" stroke-width="2" stroke-linecap="round" stroke-linejoin="round">
      <rect width="14" height="14" x="8" y="8" rx="2" ry="2"></rect>
      <path d="M4 16c-1.1 0-2-.9-2-2V4c0-1.1.9-2 2-2h10c1.1 0 2 .9 2 2"></path>
    </symbol>

    <!-- Loader -->
    <symbol id="loader" viewBox="0 0 24 24" fill="none" stroke="currentColor" stroke-width="2" stroke-linecap="round" stroke-linejoin="round">
      <path d="M21 12a9 9 0 1 1-6.219-8.56"></path>
    </symbol>

    <!-- Info -->
    <symbol id="info" viewBox="0 0 24 24" fill="none" stroke="currentColor" stroke-width="2" stroke-linecap="round" stroke-linejoin="round">
      <circle cx="12" cy="12" r="10"></circle>
      <path d="M12 16v-4"></path>
      <path d="M12 8h.01"></path>
    </symbol>

    <!-- Zap -->
    <symbol id="zap" viewBox="0 0 24 24" fill="none" stroke="currentColor" stroke-width="2" stroke-linecap="round" stroke-linejoin="round">
      <path d="M4 14a1 1 0 0 1-.78-1.63l9.9-10.2a.5.5 0 0 1 .86.46l-1.92 6.02A1 1 0 0 0 13 10h7a1 1 0 0 1 .78 1.63l-9.9 10.2a.5.5 0 0 1-.86-.46l1.92-6.02A1 1 0 0 0 11 14z"></path>
    </symbol>

    <!-- Activity -->
    <symbol id="activity" viewBox="0 0 24 24" fill="none" stroke="currentColor" stroke-width="2" stroke-linecap="round" stroke-linejoin="round">
      <path d="M22 12h-4l-3 9L9 3l-3 9H2"></path>
    </symbol>

    <!-- Paperclip (attachments) -->
    <symbol id="paperclip" viewBox="0 0 24 24" fill="none" stroke="currentColor" stroke-width="2" stroke-linecap="round" stroke-linejoin="round">
      <path d="m21.44 11.05-9.19 9.19a6 6 0 0 1-8.49-8.49l8.57-8.57A4 4 0 1 1 18 8.84l-8.59 8.57a2 2 0 0 1-2.83-2.83l8.49-8.48"></path>
    </symbol>

    <!-- Image (image files) -->
    <symbol id="image" viewBox="0 0 24 24" fill="none" stroke="currentColor" stroke-width="2" stroke-linecap="round" stroke-linejoin="round">
      <rect width="18" height="18" x="3" y="3" rx="2" ry="2"></rect>
      <circle cx="9" cy="9" r="2"></circle>
      <path d="m21 15-3.086-3.086a2 2 0 0 0-2.828 0L6 21"></path>
    </symbol>

    <!-- File-text (documents) -->
    <symbol id="file-text" viewBox="0 0 24 24" fill="none" stroke="currentColor" stroke-width="2" stroke-linecap="round" stroke-linejoin="round">
      <path d="M15 2H6a2 2 0 0 0-2 2v16a2 2 0 0 0 2 2h12a2 2 0 0 0 2-2V7Z"></path>
      <path d="M14 2v4a2 2 0 0 0 2 2h4"></path>
      <path d="M10 9H8"></path>
      <path d="M16 13H8"></path>
      <path d="M16 17H8"></path>
    </symbol>

    <!-- Flask (QA/testing) -->
    <symbol id="flask" viewBox="0 0 24 24" fill="none" stroke="currentColor" stroke-width="2" stroke-linecap="round" stroke-linejoin="round">
      <path d="M9 3h6"></path>
      <path d="M10 9V3"></path>
      <path d="M14 9V3"></path>
      <path d="M10 9a6 6 0 0 0-6 6v0a6 6 0 0 0 6 6h4a6 6 0 0 0 6-6v0a6 6 0 0 0-6-6h-4Z"></path>
      <path d="M10 13h4"></path>
    </symbol>

    <!-- Code (development) -->
    <symbol id="code" viewBox="0 0 24 24" fill="none" stroke="currentColor" stroke-width="2" stroke-linecap="round" stroke-linejoin="round">
      <polyline points="16 18 22 12 16 6"></polyline>
      <polyline points="8 6 2 12 8 18"></polyline>
    </symbol>

    <!-- Lightbulb (recommendations) -->
    <symbol id="lightbulb" viewBox="0 0 24 24" fill="none" stroke="currentColor" stroke-width="2" stroke-linecap="round" stroke-linejoin="round">
      <path d="M15 14c.2-1 .7-1.7 1.5-2.5 1-.9 1.5-2.2 1.5-3.5A6 6 0 0 0 6 8c0 1 .2 2.2 1.5 3.5.7.7 1.3 1.5 1.5 2.5"></path>
      <path d="M9 18h6"></path>
      <path d="M10 22h4"></path>
    </symbol>

    <!-- Search (findings) -->
    <symbol id="search" viewBox="0 0 24 24" fill="none" stroke="currentColor" stroke-width="2" stroke-linecap="round" stroke-linejoin="round">
      <circle cx="11" cy="11" r="8"></circle>
      <path d="m21 21-4.3-4.3"></path>
    </symbol>

    <!-- List-checks (criteria verified) -->
    <symbol id="list-checks" viewBox="0 0 24 24" fill="none" stroke="currentColor" stroke-width="2" stroke-linecap="round" stroke-linejoin="round">
      <path d="m3 17 2 2 4-4"></path>
      <path d="m3 7 2 2 4-4"></path>
      <path d="M13 6h8"></path>
      <path d="M13 12h8"></path>
      <path d="M13 18h8"></path>
    </symbol>

    <!-- Check-square (checks performed) -->
    <symbol id="check-square" viewBox="0 0 24 24" fill="none" stroke="currentColor" stroke-width="2" stroke-linecap="round" stroke-linejoin="round">
      <rect width="18" height="18" x="3" y="3" rx="2"></rect>
      <path d="m9 12 2 2 4-4"></path>
    </symbol>

    <!-- Alert-circle (unmet criteria) -->
    <symbol id="alert-circle" viewBox="0 0 24 24" fill="none" stroke="currentColor" stroke-width="2" stroke-linecap="round" stroke-linejoin="round">
      <circle cx="12" cy="12" r="10"></circle>
      <line x1="12" x2="12" y1="8" y2="12"></line>
      <line x1="12" x2="12.01" y1="16" y2="16"></line>
    </symbol>

    <!-- Minus (skipped tests) -->
    <symbol id="minus" viewBox="0 0 24 24" fill="none" stroke="currentColor" stroke-width="2" stroke-linecap="round" stroke-linejoin="round">
      <path d="M5 12h14"></path>
    </symbol>

    <!-- Pause-circle (idle time) -->
    <symbol id="pause-circle" viewBox="0 0 24 24" fill="none" stroke="currentColor" stroke-width="2" stroke-linecap="round" stroke-linejoin="round">
      <circle cx="12" cy="12" r="10"></circle>
      <line x1="10" x2="10" y1="15" y2="9"></line>
      <line x1="14" x2="14" y1="15" y2="9"></line>
    </symbol>

    <!-- Rotate-cw (cycle time) -->
    <symbol id="rotate-cw" viewBox="0 0 24 24" fill="none" stroke="currentColor" stroke-width="2" stroke-linecap="round" stroke-linejoin="round">
      <path d="M21 12a9 9 0 1 1-9-9c2.52 0 4.93 1 6.74 2.74L21 8"></path>
      <path d="M21 3v5h-5"></path>
    </symbol>

    <!-- Pencil (edit) -->
    <symbol id="pencil" viewBox="0 0 24 24" fill="none" stroke="currentColor" stroke-width="2" stroke-linecap="round" stroke-linejoin="round">
      <path d="M21.174 6.812a1 1 0 0 0-3.986-3.987L3.842 16.174a2 2 0 0 0-.5.83l-1.321 4.352a.5.5 0 0 0 .623.622l4.353-1.32a2 2 0 0 0 .83-.497z"></path>
      <path d="m15 5 4 4"></path>
    </symbol>

    <!-- Save -->
    <symbol id="save" viewBox="0 0 24 24" fill="none" stroke="currentColor" stroke-width="2" stroke-linecap="round" stroke-linejoin="round">
      <path d="M15.2 3a2 2 0 0 1 1.4.6l3.8 3.8a2 2 0 0 1 .6 1.4V19a2 2 0 0 1-2 2H5a2 2 0 0 1-2-2V5a2 2 0 0 1 2-2z"></path>
      <path d="M17 21v-7a1 1 0 0 0-1-1H8a1 1 0 0 0-1 1v7"></path>
      <path d="M7 3v4a1 1 0 0 0 1 1h7"></path>
    </symbol>

    <!-- Undo (revert) -->
    <symbol id="undo" viewBox="0 0 24 24" fill="none" stroke="currentColor" stroke-width="2" stroke-linecap="round" stroke-linejoin="round">
      <path d="M3 7v6h6"></path>
      <path d="M21 17a9 9 0 0 0-9-9 9 9 0 0 0-6 2.3L3 13"></path>
    </symbol>
  </defs>
</svg>
